PathFileType	4	(X/Y/Z)	c:/Users/goper/Files/vsCode/490R/osim_files/C08/C08_Slow_05.trc
DataRate	CameraRate	NumFrames	NumMarkers	Units                	OrigDataRate	OrigDataStartFrame	OrigNumFrames
250.00	250.00	4	36	mm	250.0	1036	2761
                Frame#	Time	LPSIS			LASIS			LTH1			LTH2			LTH3			LTH4			LLFE			LMFE			LSH1			LSH2			LSH3			LSH4			LLMAL			LMMAL			LCAL			LMTP5			LTOE			LMTP1			RPSIS			RASIS			RTH1			RTH2			RTH3			RTH4			RLFE			RMFE			RSH1			RSH2			RSH3			RSH4			RLMAL			RMMAL			RCAL			RMTP1			RTOE			RMTP5		
		X1	Y1	Z1	X2	Y2	Z2	X3	Y3	Z3	X4	Y4	Z4	X5	Y5	Z5	X6	Y6	Z6	X7	Y7	Z7	X8	Y8	Z8	X9	Y9	Z9	X10	Y10	Z10	X11	Y11	Z11	X12	Y12	Z12	X13	Y13	Z13	X14	Y14	Z14	X15	Y15	Z15	X16	Y16	Z16	X17	Y17	Z17	X18	Y18	Z18	X19	Y19	Z19	X20	Y20	Z20	X21	Y21	Z21	X22	Y22	Z22	X23	Y23	Z23	X24	Y24	Z24	X25	Y25	Z25	X26	Y26	Z26	X27	Y27	Z27	X28	Y28	Z28	X29	Y29	Z29	X30	Y30	Z30	X31	Y31	Z31	X32	Y32	Z32	X33	Y33	Z33	X34	Y34	Z34	X35	Y35	Z35	X36	Y36	Z36

1036	4.14000	1366.02637	1037.88599	196.41519	1168.05103	996.74377	301.02573	1309.98511	727.48120	359.20078	1318.68506	649.32318	338.74924	1332.59644	578.63983	332.20453	0.00000	0.00000	0.00000	0.00000	0.00000	0.00000	1325.33765	517.25940	197.76550	1452.43042	448.43658	326.49008	1473.41785	405.98962	324.74359	1400.91284	417.99994	331.99832	0.00000	0.00000	0.00000	1605.16797	162.34808	265.86337	1572.72888	160.74495	183.03433	1668.85242	170.86974	205.24503	1537.01965	52.31772	299.32736	1471.28674	58.51898	243.18027	1398.77063	-3.04393	239.94792	1360.55725	1034.59241	136.62761	1154.27673	1007.79065	63.94874	0.00000	0.00000	0.00000	1141.42310	670.64630	21.04713	1123.55188	594.64319	24.17554	1073.59290	695.05341	51.77495	1099.42590	529.30591	47.91931	0.00000	0.00000	0.00000	1137.84766	436.87897	26.39218	1124.35278	393.93454	22.43703	1078.04810	446.60321	40.18783	1073.38855	403.97919	33.07888	1085.58643	98.54261	80.20362	1058.25256	105.94905	171.12665	1139.77197	74.29236	151.12663	926.05804	56.43924	160.28946	910.37195	79.85609	107.55975	957.45135	51.85783	48.57627
1037	4.14400	1361.38171	1038.14954	196.02534	1163.44849	997.25226	300.54434	1304.01538	727.27460	359.07681	1312.76819	649.19226	339.35791	1325.82141	577.94623	332.87823	0.00000	0.00000	0.00000	1339.09668	532.79944	325.07184	1316.97888	516.17242	198.88402	1445.24243	449.01941	327.16248	1466.77527	406.96509	325.43137	1393.80664	417.65271	333.03662	1420.42151	380.55600	328.73627	1601.66968	165.50218	266.37411	1569.28601	162.28615	182.39999	1664.73328	175.19133	205.95494	1535.65344	52.78417	299.52267	1470.05530	57.88368	243.38289	1394.45532	-2.77052	240.13695	1355.91870	1035.03101	136.16472	1149.55481	1008.29669	63.80436	1157.78943	745.58167	1.09322	0.00000	0.00000	0.00000	1118.45837	595.64996	23.50544	1068.66064	695.58966	52.09471	1096.01636	529.51398	47.64132	0.00000	0.00000	0.00000	1135.06055	437.24570	25.97428	1121.88489	394.25238	22.07344	1075.17139	446.58096	39.90132	1069.88818	403.31570	33.68783	1085.23035	98.57607	80.22591	1058.38379	106.26343	171.29915	1139.62183	74.40337	151.09068	925.34589	55.94161	160.74759	910.03748	79.06790	107.88586	957.16437	51.68747	48.79593
1038	4.14800	1356.80945	1038.44336	195.65837	1157.75427	996.99298	300.26450	1297.83057	726.98718	358.96573	1305.11548	648.28748	339.39581	1317.72559	577.10516	333.58313	0.00000	0.00000	0.00000	1331.21960	531.95294	325.93057	1308.48499	515.09296	199.97688	1437.35718	449.37350	327.95306	1459.47119	407.45337	326.32077	1387.08459	418.21841	334.03922	0.00000	0.00000	0.00000	1597.37390	167.93956	267.07889	1564.79858	164.61272	183.08424	1660.45959	180.16797	206.41167	1535.24451	54.42297	299.94788	1468.87512	58.05753	243.44943	1390.05200	-2.48715	240.32526	1351.36536	1035.54407	135.73346	1144.85645	1008.85376	63.64585	1152.91565	746.54919	0.53071	0.00000	0.00000	0.00000	1113.44861	596.57867	22.91658	1064.00830	696.46350	51.99651	1092.78345	529.74677	47.30861	0.00000	0.00000	0.00000	1132.28015	437.57983	25.57786	1119.34656	394.53464	21.75736	1072.42981	446.64111	39.54586	1067.52747	403.34366	33.29993	1084.91833	98.61007	80.21778	1057.79041	105.89840	171.17305	1139.46924	74.54552	151.01872	925.41229	55.01126	160.69725	909.66107	78.34069	108.04865	956.92053	51.46119	48.84371
1039	4.15200	1352.27002	1038.75024	195.26527	1154.55750	998.18579	299.57947	1291.56213	726.63025	358.86044	1298.18030	647.80078	339.78885	1310.10767	576.47119	334.31439	1218.55603	643.95398	329.79913	1323.06909	531.00861	326.78427	1299.67407	513.90417	201.19913	1429.73425	449.89771	328.77667	1452.25720	408.29959	327.12054	1379.79980	418.30377	335.13797	0.00000	0.00000	0.00000	1593.36609	171.27251	267.65891	1561.71594	167.24507	184.17905	1655.46973	184.78754	207.26241	1533.96912	55.49482	300.06396	1467.61914	58.45263	243.84065	1385.55920	-2.19380	240.51289	1346.79968	1036.02966	135.31303	1140.21228	1009.47876	63.39811	0.00000	0.00000	0.00000	1127.18799	673.29584	19.82071	1108.65112	597.41833	22.39086	1059.30579	697.60333	51.44352	1089.64331	530.00891	46.91561	1099.01672	519.27185	168.55121	1130.01843	438.06741	24.92999	1116.82898	394.77832	21.43132	1069.62439	446.57999	39.37971	1065.08215	403.39813	32.99144	1085.41956	98.44667	80.15968	1058.54565	106.30999	171.24541	1139.32007	74.69816	150.95309	925.23022	54.46201	160.74150	909.32507	77.60883	108.11738	956.71027	51.20126	48.83161
